<?xml version="1.0" encoding="UTF-8"?>
<svg version="1.1" xmlns="http://www.w3.org/2000/svg" width="16" height="16" viewBox="0 0 16 16">
<path d="M0 0 C2.06 1.37 3.08 2.94 3.84 5.28 C3.91 6.44 3.91 6.44 2.91 7.94 C2.65 7.65 2.39 7.37 2.12 7.08 C1.77 6.71 1.42 6.35 1.06 5.97 C0.72 5.60 0.38 5.24 0.03 4.86 C-1.23 3.83 -1.99 3.58 -3.59 3.44 C-4.75 3.64 -4.75 3.64 -5.59 4.44 C-6.32 5.77 -6.32 5.77 -6.09 7.44 C-5.31 8.57 -4.44 9.53 -3.47 10.52 C-2.59 11.44 -2.59 11.44 -1.59 12.94 C-3.34 13.52 -4.10 13.44 -5.88 12.84 C-8.06 11.69 -9.30 10.81 -10.09 8.44 C-10.36 6.11 -10.31 4.38 -9.28 2.25 C-6.64 -0.67 -3.71 -1.31 0 0 Z " fill="currentColor" transform="translate(11.09,1.56)"/>
<path d="M0 0 C2.38 0.70 4.05 2.01 5.50 4 C5.72 5.41 5.72 5.41 5.50 6.50 C5 7 5 7 3.94 7.25 C1.68 6.86 0.35 5.29 -1 3.50 C-1.40 2.44 -1.40 2.44 -1.50 1.50 C-0.78 0.62 -0.78 0.62 0 0 Z " fill="currentColor" transform="translate(9.50,8)"/>
</svg>
