<?xml version="1.0" encoding="UTF-8"?>
<svg version="1.1" xmlns="http://www.w3.org/2000/svg" width="2109" height="2120">
<path d="M0 0 C1.26780304 0.00027191 2.53560608 0.00054382 3.84182739 0.00082397 C24.21755356 0.02082104 44.47794514 0.496545 64.79559326 2.03253174 C66.89079934 2.18867745 68.98647761 2.33552 71.08251953 2.47998047 C161.32402368 8.76077769 250.46326271 29.41477601 448.875 116.1875 C449.79152344 116.71553223 450.70804688 117.24356445 451.65234375 117.78759766 C469.43347669 128.03949599 487.06479811 138.45318047 504.06152344 149.96679688 C505.86883764 151.18335194 507.68612307 152.3832219 509.5078125 153.578125 C518.01713899 159.16980625 526.29948091 165.03380535 534.52734375 171.03125 C537.1908367 172.97215312 539.86509223 174.89335377 542.56640625 176.78125 C549.60882841 181.70856899 556.34335061 186.90644039 562.98046875 192.36889648 C567.09150987 195.7514428 571.25331819 199.03992007 575.5 202.25 C581.91366084 207.14526025 588.01346296 212.3576415 594.10009766 217.65087891 C595.87486466 219.18738283 597.65990258 220.71094294 599.44921875 222.23046875 C606.50661532 228.22654443 613.42088558 234.33753042 620.20704651 240.64079285 C621.85178248 242.1659702 623.50095941 243.68622327 625.15063477 245.20605469 C634.20688741 253.57605773 643.01462897 262.17092238 651.72119141 270.90332031 C653.89761269 273.08516908 656.07942239 275.26152913 658.26171875 277.4375 C659.67480037 278.85124152 661.08757223 280.26529274 662.5 281.6796875 C663.1386499 282.31631317 663.7772998 282.95293884 664.43530273 283.6088562 C668.2162208 287.40925648 671.81356244 291.32194113 675.31082153 295.38520813 C677.71768692 298.15846835 680.23804226 300.82232576 682.75 303.5 C687.27131597 308.35445071 691.52864157 313.35360132 695.6796875 318.53125 C697.90445441 321.22313879 700.23783207 323.76414067 702.625 326.3125 C707.38442331 331.48386721 711.62019626 336.96378075 715.84448242 342.57666016 C719.59381059 347.54910736 723.46764803 352.39002576 727.4375 357.1875 C732.92371408 363.85548645 737.94436654 370.77120926 742.859375 377.8671875 C744.84926018 380.73815969 746.87760363 383.5731376 748.953125 386.3828125 C757.52578338 397.99691023 765.32495551 410.03448999 773.01611328 422.24707031 C774.66117885 424.84927279 776.32287663 427.43928897 777.99609375 430.0234375 C808.40176312 477.15324603 833.30252459 528.08768712 853.875 580.1875 C854.52734619 581.82332031 854.52734619 581.82332031 855.19287109 583.4921875 C888.4740777 667.28048995 907.75688428 756.41055703 914.6875 846.1875 C914.77386215 847.30242828 914.77386215 847.30242828 914.86196899 848.43988037 C922.14592001 944.74464888 913.57620611 1042.54976176 882.875 1166.1875 C879.64451252 1164.7675745 877.49257512 1163.05130613 875.01171875 1160.5546875 C874.28919922 1159.83023437 873.56667969 1159.10578125 872.82226562 1158.359375 C872.07654297 1157.60140625 871.33082031 1156.8434375 870.5625 1156.0625 C869.82837891 1155.32773438 869.09425781 1154.59296875 868.33789062 1153.8359375 C865.07021895 1150.54217084 861.8998498 1147.22317624 858.88793945 1143.69384766 C854.23305432 1138.3482646 849.19038903 1133.39108831 844.16307068 1128.40040588 C842.36867665 1126.61894752 840.57757591 1124.83423362 838.78723145 1123.04870605 C834.98597725 1119.25879734 831.18079412 1115.47284903 827.375 1111.6875 C822.95965815 1107.29587779 818.54600752 1102.90258274 814.13658142 1098.50502014 C812.38450204 1096.7593529 810.62940523 1095.01676048 808.87414551 1093.27429199 C803.99761825 1088.41992934 799.23570213 1083.53694787 794.76452637 1078.30187988 C790.75872976 1073.81939374 786.4282391 1069.63449244 782.16307068 1065.40040588 C780.36867665 1063.61894752 778.57757591 1061.83423362 776.78723145 1060.04870605 C772.98597725 1056.25879734 769.18079412 1052.47284903 765.375 1048.6875 C760.95965815 1044.29587779 756.54600752 1039.90258274 752.13658142 1035.50502014 C750.38450204 1033.7593529 748.62940523 1032.01676048 746.87414551 1030.27429199 C741.99761825 1025.41992934 737.23570213 1020.53694787 732.76452637 1015.30187988 C728.75872976 1010.81939374 724.4282391 1006.63449244 720.16307068 1002.40040588 C718.36867665 1000.61894752 716.57757591 998.83423362 714.78723145 997.04870605 C710.98597725 993.25879734 707.18079412 989.47284903 703.375 985.6875 C698.95965815 981.29587779 694.54600752 976.90258274 690.13658142 972.50502014 C688.38450204 970.7593529 686.62940523 969.01676048 684.87414551 967.27429199 C679.99322981 962.41556013 675.22626937 957.52831357 670.75109863 952.28845215 C666.80918452 947.87409313 662.54746118 943.75359914 658.3482666 939.58560181 C656.587475 937.83775078 654.82998136 936.08664028 653.07324219 934.3347168 C649.34331875 930.61613649 645.60946563 926.90151796 641.875 923.1875 C637.54226227 918.87848571 633.21121847 914.56779623 628.88439941 910.25283813 C627.16555956 908.5404083 625.44370188 906.83105488 623.72167969 905.12182617 C615.06247517 896.50273293 615.06247517 896.50273293 611.38867188 892.20117188 C606.93652787 886.99120182 602.02310653 882.22502486 597.16307068 877.40040588 C595.36867665 875.61894752 593.57757591 873.83423362 591.78723145 872.04870605 C587.98597725 868.25879734 584.18079412 864.47284903 580.375 860.6875 C575.95965815 856.29587779 571.54600752 851.90258274 567.13658142 847.50502014 C565.38450204 845.7593529 563.62940523 844.01676048 561.87414551 842.27429199 C556.99761825 837.41992934 552.23570213 832.53694787 547.76452637 827.30187988 C543.75872976 822.81939374 539.4282391 818.63449244 535.16307068 814.40040588 C533.36867665 812.61894752 531.57757591 810.83423362 529.78723145 809.04870605 C525.98597725 805.25879734 522.18079412 801.47284903 518.375 797.6875 C513.95965815 793.29587779 509.54600752 788.90258274 505.13658142 784.50502014 C503.38450204 782.7593529 501.62940523 781.01676048 499.87414551 779.27429199 C494.99761825 774.41992934 490.23570213 769.53694787 485.76452637 764.30187988 C481.75872976 759.81939374 477.4282391 755.63449244 473.16307068 751.40040588 C471.36867665 749.61894752 469.57757591 747.83423362 467.78723145 746.04870605 C463.98597725 742.25879734 460.18079412 738.47284903 456.375 734.6875 C451.95965815 730.29587779 447.54600752 725.90258274 443.13658142 721.50502014 C441.38450204 719.7593529 439.62940523 718.01676048 437.87414551 716.27429199 C429.04988686 707.49023474 429.04988686 707.49023474 425.40014648 703.21704102 C420.27914915 697.2216064 414.58104171 691.75005271 409.00390625 686.18359375 C407.7549762 684.93398855 406.50619449 683.68423507 405.2575531 682.43434143 C402.65110569 679.82642696 400.04287706 677.22031093 397.43334961 674.61547852 C394.10711479 671.29494035 390.78539066 667.96993188 387.46499729 664.64355373 C384.89044177 662.06536574 382.31348585 659.48958756 379.73582268 656.91450691 C378.51082132 655.6901674 377.28654781 654.46509916 376.06305122 653.23925591 C367.51748525 644.67053115 367.51748525 644.67053115 358.51573181 636.58668518 C355.54504413 634.05333869 352.72251219 631.35742021 349.875 628.6875 C344.94995537 624.09599304 340.00101415 619.55517123 334.875 615.1875 C333.50214844 614.01380859 333.50214844 614.01380859 332.1015625 612.81640625 C328.70661565 609.92347985 325.29415061 607.05176115 321.875 604.1875 C321.22321777 603.6414209 320.57143555 603.0953418 319.89990234 602.53271484 C309.43942507 593.79108361 298.77701133 585.37064282 287.875 577.1875 C287.12492676 576.6203125 286.37485352 576.053125 285.60205078 575.46875 C266.2473056 560.84969695 245.96071002 548.15717817 224.875 536.1875 C224.17600586 535.78692383 223.47701172 535.38634766 222.75683594 534.97363281 C177.53704637 509.19146167 125.38285814 495.95285286 73.875 491.1875 C72.4355603 491.04393066 72.4355603 491.04393066 70.96704102 490.89746094 C38.50653087 488.07985735 4.12175809 488.42058793 -28.125 493.1875 C-29.55826352 493.39358745 -30.99153198 493.59964054 -32.42480469 493.80566406 C-72.18562341 499.59929525 -111.27431905 509.97777455 -148.125 526.1875 C-149.60323242 526.8362207 -149.60323242 526.8362207 -151.11132812 527.49804688 C-184.02312014 542.06556137 -214.61799402 560.21334956 -243.125 582.1875 C-243.68960938 582.620625 -244.25421875 583.05375 -244.8359375 583.5 C-251.6605322 588.74510335 -258.32043466 594.07710147 -264.6484375 599.921875 C-266.71443322 601.81190263 -268.80541293 603.6588314 -270.91796875 605.49609375 C-280.38182748 613.75654534 -289.7399716 622.24489114 -297.98828125 631.734375 C-300.0155306 634.06182032 -302.09714215 636.33024124 -304.19946289 638.58984375 C-318.99926488 654.5277021 -332.15116981 672.04533305 -344.125 690.1875 C-344.60291992 690.91130859 -345.08083984 691.63511719 -345.57324219 692.38085938 C-357.05258606 709.89120989 -367.13392448 728.28111665 -376.125 747.1875 C-376.47626953 747.92581055 -376.82753906 748.66412109 -377.18945312 749.42480469 C-396.83558341 791.09053956 -408.93514479 835.61505428 -415.125 881.1875 C-415.29016113 882.36715332 -415.45532227 883.54680664 -415.62548828 884.76220703 C-420.53844865 921.4188865 -420.31209323 960.45941051 -416.125 997.1875 C-415.99609375 998.37730469 -415.8671875 999.56710937 -415.734375 1000.79296875 C-406.48192707 1084.1506709 -363.96306853 1150.52910395 -311.96508789 1214.22070312 C-308.42332927 1218.56523233 -304.94340667 1222.95227017 -301.5 1227.375 C-297.05464235 1233.07630411 -292.43579415 1238.6077948 -287.7421875 1244.10546875 C-285.33003476 1246.93433013 -282.97080002 1249.80325122 -280.625 1252.6875 C-276.00668639 1258.35767152 -271.2849937 1263.93585171 -266.54980469 1269.50830078 C-264.62586264 1271.77575681 -262.70897256 1274.04912961 -260.79174805 1276.32226562 C-259.40400237 1277.96565496 -258.01318832 1279.60638748 -256.62109375 1281.24609375 C-255.12879997 1283.00461835 -253.64041899 1284.76649242 -252.16015625 1286.53515625 C-249.47209044 1289.69866228 -246.75503158 1292.58123927 -243.578125 1295.2578125 C-238.83443752 1299.36752597 -234.42147946 1303.77663825 -230.00466919 1308.23266602 C-228.52568091 1309.72464243 -227.04339498 1311.21327553 -225.56030273 1312.70117188 C-221.88052613 1316.39418154 -218.20627373 1320.09267112 -214.53186035 1323.79101562 C-211.41454371 1326.92820304 -208.29508912 1330.06323602 -205.17288208 1333.19555664 C-203.72634931 1334.64847908 -202.28290833 1336.10442281 -200.83959961 1337.56054688 C-196.41227032 1342.00422494 -191.93385918 1346.27957257 -187.17431641 1350.36303711 C-182.85912533 1354.20476012 -178.84662794 1358.36662006 -174.78125 1362.46875 C-173.80323581 1363.45118378 -172.82491749 1364.43331488 -171.84631348 1365.41516113 C-168.25001016 1369.02469318 -164.65923404 1372.63970706 -161.06829834 1376.25457764 C-158.02144421 1379.3213075 -154.97244874 1382.38587914 -151.92070007 1385.44773865 C-150.50741371 1386.86741157 -149.09722889 1388.29016999 -147.68713379 1389.7130127 C-143.92526003 1393.48909594 -140.17060746 1397.21478939 -136.125 1400.6875 C-131.08220495 1405.01618686 -126.45687824 1409.75085295 -121.78125 1414.46875 C-120.80323581 1415.45118378 -119.82491749 1416.43331488 -118.84631348 1417.41516113 C-115.25001016 1421.02469318 -111.65923404 1424.63970706 -108.06829834 1428.25457764 C-105.02144421 1431.3213075 -101.97244874 1434.38587914 -98.92070007 1437.44773865 C-97.50741371 1438.86741157 -96.09722889 1440.29016999 -94.68713379 1441.7130127 C-90.92526003 1445.48909594 -87.17060746 1449.21478939 -83.125 1452.6875 C-78.08220495 1457.01618686 -73.45687824 1461.75085295 -68.78125 1466.46875 C-67.80323581 1467.45118378 -66.82491749 1468.43331488 -65.84631348 1469.41516113 C-62.25001016 1473.02469318 -58.65923404 1476.63970706 -55.06829834 1480.25457764 C-52.02144421 1483.3213075 -48.97244874 1486.38587914 -45.92070007 1489.44773865 C-44.50741371 1490.86741157 -43.09722889 1492.29016999 -41.68713379 1493.7130127 C-37.92978622 1497.48455265 -34.18029216 1501.20630742 -30.13867188 1504.67382812 C-25.53046317 1508.62955222 -21.27819718 1512.92119275 -17.00466919 1517.23266602 C-15.52568091 1518.72464243 -14.04339498 1520.21327553 -12.56030273 1521.70117188 C-8.88052613 1525.39418154 -5.20627373 1529.09267112 -1.53186035 1532.79101562 C1.58545629 1535.92820304 4.70491088 1539.06323602 7.82711792 1542.19555664 C9.27365069 1543.64847908 10.71709167 1545.10442281 12.16040039 1546.56054688 C16.58772968 1551.00422494 21.06614082 1555.27957257 25.82568359 1559.36303711 C30.14087467 1563.20476012 34.15337206 1567.36662006 38.21875 1571.46875 C39.19676419 1572.45118378 40.17508251 1573.43331488 41.15368652 1574.41516113 C44.74998984 1578.02469318 48.34076596 1581.63970706 51.93170166 1585.25457764 C54.97855579 1588.3213075 58.02755126 1591.38587914 61.07929993 1594.44773865 C62.49258629 1595.86741157 63.90277111 1597.29016999 65.31286621 1598.7130127 C69.07473997 1602.48909594 72.82939254 1606.21478939 76.875 1609.6875 C81.91779505 1614.01618686 86.54312176 1618.75085295 91.21875 1623.46875 C92.19676419 1624.45118378 93.17508251 1625.43331488 94.15368652 1626.41516113 C97.74998984 1630.02469318 101.34076596 1633.63970706 104.93170166 1637.25457764 C107.97855579 1640.3213075 111.02755126 1643.38587914 114.07929993 1646.44773865 C115.49258629 1647.86741157 116.90277111 1649.29016999 118.31286621 1650.7130127 C122.07021378 1654.48455265 125.81970784 1658.20630742 129.86132812 1661.67382812 C134.46953683 1665.62955222 138.72180282 1669.92119275 142.99533081 1674.23266602 C144.47431909 1675.72464243 145.95660502 1677.21327553 147.43969727 1678.70117188 C151.11947387 1682.39418154 154.79372627 1686.09267112 158.46813965 1689.79101562 C161.58545629 1692.92820304 164.70491088 1696.06323602 167.82711792 1699.19555664 C169.27365069 1700.64847908 170.71709167 1702.10442281 172.16040039 1703.56054688 C176.58772968 1708.00422494 181.06614082 1712.27957257 185.82568359 1716.36303711 C190.14087467 1720.20476012 194.15337206 1724.36662006 198.21875 1728.46875 C199.19676419 1729.45118378 200.17508251 1730.43331488 201.15368652 1731.41516113 C204.74998984 1735.02469318 208.34076596 1738.63970706 211.93170166 1742.25457764 C214.97855579 1745.3213075 218.02755126 1748.38587914 221.07929993 1751.44773865 C222.49258629 1752.86741157 223.90277111 1754.29016999 225.31286621 1755.7130127 C229.78096012 1760.19798365 234.30434869 1764.52629829 239.10900879 1768.64859009 C241.67903485 1770.88814743 244.06508491 1773.26562113 246.46875 1775.68359375 C246.94574341 1776.16200211 247.42273682 1776.64041046 247.91418457 1777.13331604 C249.40353695 1778.62816514 250.88933149 1780.12649059 252.375 1781.625 C253.39820139 1782.6532298 254.42163733 1783.68122626 255.4453125 1784.70898438 C257.92457999 1787.19914338 260.40067538 1789.69242833 262.875 1792.1875 C261.875 1794.1875 261.875 1794.1875 260.13305664 1794.8984375 C259.35824951 1795.11757812 258.58344238 1795.33671875 257.78515625 1795.5625 C256.87983154 1795.81999023 255.97450684 1796.07748047 255.04174805 1796.34277344 C253.50514526 1796.76091309 253.50514526 1796.76091309 251.9375 1797.1875 C250.28004761 1797.64044434 250.28004761 1797.64044434 248.58911133 1798.10253906 C244.68945986 1799.15112309 240.78398985 1800.17441881 236.875 1801.1875 C235.81448425 1801.46364136 235.81448425 1801.46364136 234.73254395 1801.74536133 C143.73336807 1825.36532447 49.58606126 1835.29947637 -63.0847168 1829.34570312 C-65.18037161 1829.1832065 -67.27653872 1829.02997148 -69.37304688 1828.87890625 C-159.3635599 1822.34690064 -247.15854813 1801.74750703 -406.38720703 1736.06518555 C-409.75568521 1734.36824943 -413.14032152 1732.70638405 -416.53125 1731.0546875 C-430.55143107 1724.19110011 -444.1016636 1716.77316797 -457.49316406 1708.75537109 C-459.82606435 1707.36558578 -462.16937027 1705.99803821 -464.5234375 1704.64453125 C-484.527936 1693.12020059 -504.18181199 1680.57542389 -522.8125 1666.9375 C-527.3477263 1663.6335525 -531.88473341 1660.33783483 -536.49609375 1657.140625 C-545.08427034 1651.18492617 -553.29135089 1644.93867597 -561.34765625 1638.28125 C-564.77321914 1635.45518237 -568.27277853 1632.74331058 -571.8125 1630.0625 C-578.44989321 1624.99260924 -584.8005623 1619.63787211 -591.125 1614.1875 C-591.73134277 1613.66752441 -592.33768555 1613.14754883 -592.96240234 1612.61181641 C-600.54640056 1606.10761366 -608.02959856 1599.51583871 -615.36328125 1592.73046875 C-617.92439475 1590.37221573 -620.51866833 1588.05799164 -623.125 1585.75 C-627.51694451 1581.81702075 -631.66663401 1577.68156577 -635.8046875 1573.48632812 C-638.48662741 1570.78019545 -641.20250867 1568.19349379 -644.125 1565.75 C-648.26194282 1562.22974431 -651.83567147 1558.25173853 -655.48120117 1554.23779297 C-658.87356938 1550.51147766 -662.35189139 1546.91628103 -665.9375 1543.375 C-669.56024708 1539.78848039 -673.01609552 1536.14611479 -676.32421875 1532.26953125 C-678.49824202 1529.75596422 -680.74890488 1527.31973771 -683 1524.875 C-687.15064615 1520.3287552 -691.06385919 1515.63967473 -694.92578125 1510.84765625 C-697.0014502 1508.33694479 -699.15838548 1505.94869159 -701.375 1503.5625 C-705.93168304 1498.5628061 -709.98072662 1493.23937551 -714.0480957 1487.8425293 C-717.77028552 1482.91599091 -721.61886434 1478.12512476 -725.5625 1473.375 C-731.68900898 1465.94545104 -737.18144571 1458.13810019 -742.640625 1450.2109375 C-745.43653894 1446.15451935 -748.3099124 1442.16337881 -751.22314453 1438.19067383 C-756.7183579 1430.69505984 -761.84009221 1423.07521738 -766.68359375 1415.14453125 C-768.71084045 1411.82936747 -770.82685243 1408.58278202 -772.97192383 1405.34301758 C-780.26134945 1394.30201359 -786.78143493 1382.83146657 -793.32324219 1371.33691406 C-794.95052714 1368.49247289 -796.59794567 1365.66144714 -798.2578125 1362.8359375 C-805.90798842 1349.75831454 -812.70455142 1336.32280791 -819.37597656 1322.7277832 C-820.5905842 1320.26923695 -821.81417917 1317.81767557 -823.05371094 1315.37182617 C-827.93075383 1305.73798072 -832.50094392 1295.99708814 -836.875 1286.125 C-837.21949188 1285.34826935 -837.56398376 1284.5715387 -837.91891479 1283.77127075 C-844.84971031 1268.10203532 -851.23381832 1252.27611469 -857.125 1236.1875 C-857.40732483 1235.4206488 -857.68964966 1234.65379761 -857.98052979 1233.8637085 C-889.18777918 1149.02977778 -907.76413787 1060.42655227 -913.125 970.1875 C-913.1733902 969.38617645 -913.2217804 968.58485291 -913.27163696 967.75924683 C-914.26789053 950.68177766 -914.32517536 933.60059022 -914.3125 916.5 C-914.31238041 915.78350658 -914.31226082 915.06701317 -914.3121376 914.32880783 C-914.30747506 892.21514804 -913.93525354 870.23633148 -912.125 848.1875 C-911.97787947 846.18356617 -911.83078004 844.17963028 -911.6854248 842.17556763 C-905.05321587 751.84472035 -883.83353558 662.93381868 -819.00048828 507.91870117 C-817.30371942 504.55268707 -815.64278878 501.17018242 -813.9921875 497.78125 C-807.12860011 483.76106893 -799.71066797 470.2108364 -791.69287109 456.81933594 C-790.30308578 454.48643565 -788.93553821 452.14312973 -787.58203125 449.7890625 C-776.05770059 429.784564 -763.51292389 410.13068801 -749.875 391.5 C-746.5710525 386.9647737 -743.27533483 382.42776659 -740.078125 377.81640625 C-734.12135845 369.22669001 -727.87419736 361.01810592 -721.21484375 352.9609375 C-718.40817519 349.55907206 -715.72071422 346.0808195 -713.0625 342.5625 C-708.16723975 336.14883916 -702.9548585 330.04903704 -697.66162109 323.96240234 C-696.12511717 322.18763534 -694.60155706 320.40259742 -693.08203125 318.61328125 C-687.41570915 311.94481472 -681.64666362 305.39950773 -675.69921875 298.98046875 C-673.34947983 296.43105551 -671.04629068 293.84744356 -668.75 291.25 C-664.59870391 286.61339052 -660.21466538 282.2430917 -655.78833008 277.87231445 C-652.87791635 274.98587942 -650.08116066 272.07489397 -647.4375 268.9375 C-644.23845613 265.17529927 -640.64114457 262.00372015 -636.9375 258.74609375 C-633.68286551 255.78528043 -630.59071332 252.69243217 -627.5 249.5625 C-623.47867661 245.49937853 -619.43052842 241.55500949 -615.0703125 237.8515625 C-612.77267068 235.88610986 -610.54626877 233.85020129 -608.3125 231.8125 C-604.84969918 228.68327173 -601.31820997 225.68249651 -597.6875 222.75 C-593.91476871 219.70218341 -590.30335046 216.55064484 -586.75 213.25 C-581.36532565 208.3006823 -575.65928886 203.88294391 -569.82958984 199.48486328 C-566.89982363 197.2550183 -564.01465751 194.9689138 -561.125 192.6875 C-559.94163192 191.75752527 -558.7580393 190.82783618 -557.57421875 189.8984375 C-555.3851259 188.17961229 -553.20092136 186.45521127 -551.01953125 184.7265625 C-543.93860165 179.18028304 -536.63960966 174.03943652 -529.19116211 168.99780273 C-524.56528232 165.8663038 -520.00771261 162.67400246 -515.5 159.375 C-505.05749678 151.80414568 -494.03832639 145.05044539 -483.125 138.1875 C-482.32046387 137.6807373 -481.51592773 137.17397461 -480.68701172 136.65185547 C-460.0373458 123.69691686 -438.73350707 111.69463935 -417.00439453 100.65283203 C-414.05822048 99.15351571 -411.12107786 97.63735323 -408.18359375 96.12109375 C-327.1854664 54.63064842 -238.81205239 26.6655335 -51.125 1.1875 C-50.27272827 1.14017731 -49.42045654 1.09285461 -48.5423584 1.0440979 C-32.36228064 0.17524939 -16.20115389 -0.01316832 0 0 Z " fill="#8E3DFF" transform="translate(1028.125,130.8125)"/>
<path d="M0 0 C0.80244141 0.10183594 1.60488281 0.20367188 2.43164062 0.30859375 C42.83557698 5.64309879 83.60657849 21.02798156 116 46 C116.93585938 46.68320313 117.87171875 47.36640625 118.8359375 48.0703125 C134.63845312 59.64223339 149.44824297 72.66765108 161.64594567 88.04830492 C170.35018653 98.96235419 179.67019227 108.9587706 189.54959106 118.80355835 C190.9967721 120.25304861 192.44351765 121.70297376 193.88986957 123.15329134 C197.83372496 127.10543954 201.78372475 131.05139454 205.73483682 134.99628615 C210.00703212 139.26393542 214.27344245 143.53736158 218.5406189 147.81002808 C226.40584772 155.68361704 234.27559846 163.55267079 242.14775044 171.41933668 C249.41933165 178.6858755 256.68903727 185.95428427 263.95690536 193.2245369 C264.44006448 193.70784878 264.92322359 194.19116066 265.42102389 194.68911836 C267.38255838 196.65127558 269.34408582 198.61343983 271.30560167 200.57561567 C289.68032481 218.95644763 308.06085939 237.33145834 326.44402555 255.70384576 C342.76397483 272.01429879 359.07873797 288.32992235 375.38916016 304.64990234 C393.73522743 323.0066845 412.08452861 341.36022412 430.43904293 359.70856059 C432.39627701 361.66515328 434.35350325 363.62175383 436.31072617 365.5783577 C436.79261052 366.0600839 437.27449488 366.5418101 437.77098179 367.03813407 C445.03805625 374.3029365 452.30266553 381.57019783 459.56607437 388.83866501 C467.82428401 397.10259726 476.08616505 405.36284325 484.3525597 413.61858885 C488.56882038 417.82959665 492.78347225 422.04218158 496.9937973 426.25912476 C500.84951226 430.12080873 504.70983149 433.97782746 508.57384001 437.83121236 C509.96907632 439.22421877 511.36263881 440.61890417 512.75432922 442.01545314 C519.53704686 448.82002684 526.22951597 455.31087842 534 461 C535.70848479 462.47605418 537.40040441 463.9718984 539.0625 465.5 C542.06191285 468.24404489 545.08636384 470.93431704 548.1875 473.5625 C551.48385846 476.42947309 554.31221462 479.52609995 557.12231445 482.86523438 C558.92243053 484.91181024 560.80518815 486.78037276 562.7734375 488.6640625 C567.06155624 492.92406082 570.60449352 497.5364803 574.125 502.4375 C574.70636719 503.23220703 575.28773438 504.02691406 575.88671875 504.84570312 C608.71553934 549.97615112 626.19501782 600.92061175 626.25 656.8125 C626.25133942 657.62237366 626.25267883 658.43224731 626.25405884 659.2666626 C626.24914618 673.03261224 625.347884 686.41581402 623 700 C622.88785156 700.69029297 622.77570312 701.38058594 622.66015625 702.09179688 C614.25652198 753.18796819 588.91458066 799.20624981 553 836 C551.99719653 837.04277712 550.9945782 838.08573234 549.9921875 839.12890625 C544.02047938 845.24522839 537.7720536 850.79057887 531 856 C530.34563965 856.50901855 529.6912793 857.01803711 529.01708984 857.54248047 C476.6340598 898.06922045 410.4585905 917.51782229 344.34521484 910.04785156 C341.89083724 909.73112504 339.44615498 909.37497165 337 909 C336.04448242 908.8546582 335.08896484 908.70931641 334.10449219 908.55957031 C280.02859732 899.97255816 231.92840058 875.32933143 193 837 C191.96308577 836.00042354 190.92537465 835.00167282 189.88671875 834.00390625 C184.67167396 828.9186966 179.95284995 823.63694189 175.41207892 817.94546586 C166.49810006 807.06032433 156.36955159 797.22244658 146.42970276 787.28926086 C144.87192863 785.72889794 143.31436756 784.16832229 141.75699943 782.60755414 C137.50482153 778.34736502 133.24956477 774.09026323 128.99375021 769.83370745 C124.8674891 765.70577718 120.74355776 761.57552144 116.61950562 757.44538445 C105.59112547 746.40101884 94.55773644 735.36166287 83.52375936 724.32288944 C78.30326064 719.10004974 73.08339318 713.87657935 67.86359992 708.65303462 C49.98793289 690.76454578 32.11121806 672.87710503 14.23086643 654.99329853 C13.11073579 653.87294626 11.99060523 652.75259392 10.87047475 651.6322415 C9.74771775 650.50926386 8.62496068 649.3862863 7.50220352 648.26330882 C5.24992078 646.01058354 2.99764033 643.75785597 0.74536133 641.50512695 C0.18693526 640.9465915 -0.37149081 640.38805604 -0.94683888 639.81259526 C-19.08737564 621.66842117 -37.2217449 603.51809947 -55.35246196 585.3641133 C-74.5341501 566.15785224 -93.72124818 546.95701252 -112.91462857 527.76243562 C-115.01923246 525.65766027 -117.12381436 523.55286294 -119.2283802 521.44804955 C-119.74656359 520.92981039 -120.26474697 520.41157124 -120.79863288 519.87762787 C-129.14637235 511.52873656 -137.48916154 503.1749154 -145.83020635 494.81933634 C-154.2013943 486.43381305 -162.57822077 478.05395684 -170.96048116 469.67950151 C-175.503492 465.14041223 -180.04399843 460.59888757 -184.57806396 456.05086136 C-188.72316491 451.89311341 -192.87504053 447.7422617 -197.03257168 443.59694435 C-198.54031543 442.09117351 -200.04549347 440.58282861 -201.54791968 439.07175199 C-203.58060776 437.02809727 -205.62219585 434.99378129 -207.66640377 432.96165943 C-208.25598528 432.36448273 -208.84556679 431.76730603 -209.4530144 431.15203306 C-212.29557521 428.34596325 -214.18286987 426.92302306 -218 426 C-232.32743992 412.98810131 -243.54701013 395.72808502 -253 379 C-253.73283203 377.70497559 -253.73283203 377.70497559 -254.48046875 376.38378906 C-266.75082303 354.4217475 -275.43947649 331.52147314 -281 307 C-281.16580566 306.28279785 -281.33161133 305.5655957 -281.50244141 304.82666016 C-296.27051489 240.02797036 -282.01242493 170.51537072 -247.0456543 114.62573242 C-236.21900187 97.78409648 -223.14503194 83.09683762 -209 69 C-208.46117187 68.43796875 -207.92234375 67.8759375 -207.3671875 67.296875 C-202.30358816 62.04769873 -196.72735515 57.50055295 -191 53 C-190.42636719 52.54463867 -189.85273437 52.08927734 -189.26171875 51.62011719 C-135.93926607 9.51593212 -67.20374153 -8.55224362 0 0 Z " fill="#8A3DFF" transform="translate(1363,1089)"/>
</svg>
